/* XPM */
static char *_fa7636dcefc4045cc3839b63f91a2f8[] = {
/* columns rows colors chars-per-pixel */
"80 80 256 2 ",
"   c #010102",
".  c #01010C",
"X  c #0C0C0C",
"o  c #0B0B08",
"O  c #100F0B",
"+  c #12110E",
"@  c #1A180D",
"#  c #010412",
"$  c #060913",
"%  c #0B0D13",
"&  c #00031C",
"*  c #05091A",
"=  c #0A0D1B",
"-  c #0F1015",
";  c #0E111D",
":  c #131313",
">  c #1A1914",
",  c #13151B",
"<  c #17181C",
"1  c #1C1C1C",
"2  c #181713",
"3  c #201F19",
"4  c #1E201F",
"5  c #24221C",
"6  c #2C291D",
"7  c #282517",
"8  c #332E1D",
"9  c #37311C",
"0  c #090E24",
"q  c #040921",
"w  c #0E1223",
"e  c #0C1129",
"r  c #131623",
"t  c #161924",
"y  c #1B1D24",
"u  c #161B2D",
"i  c #1B1E29",
"p  c #11162C",
"a  c #171C32",
"s  c #1F2024",
"d  c #1E212B",
"f  c #1C2034",
"g  c #1D223A",
"h  c #242424",
"j  c #2C2A25",
"k  c #22242B",
"l  c #27282C",
"z  c #2B2B2B",
"x  c #282825",
"c  c #312F23",
"v  c #302F29",
"b  c #353124",
"n  c #33322C",
"m  c #39362C",
"M  c #3D3A2C",
"N  c #3A3623",
"B  c #222533",
"V  c #2B2D34",
"C  c #25293B",
"Z  c #2B2D3B",
"A  c #252837",
"S  c #2E313C",
"D  c #2E3036",
"F  c #333333",
"G  c #393935",
"H  c #33353B",
"J  c #37383C",
"K  c #3A3A3A",
"L  c #433C24",
"P  c #423E2C",
"I  c #413E32",
"U  c #403F38",
"Y  c #3F403F",
"T  c #45412D",
"R  c #4C452B",
"E  c #4F482C",
"W  c #4B4427",
"Q  c #534B2B",
"!  c #584F2C",
"~  c #5A512E",
"^  c #464333",
"/  c #494533",
"(  c #4E4934",
")  c #45443C",
"_  c #4C493C",
"`  c #4A473C",
"'  c #534C33",
"]  c #534E3B",
"[  c #5A5335",
"{  c #55513C",
"}  c #5A553A",
"|  c #5E593D",
" . c #605633",
".. c #635A36",
"X. c #635B3B",
"o. c #695E33",
"O. c #6C6136",
"+. c #6D633A",
"@. c #66603F",
"#. c #72663B",
"$. c #75693B",
"%. c #7B6D39",
"&. c #756737",
"*. c #7E703B",
"=. c #2A3147",
"-. c #313442",
";. c #3B3C42",
":. c #383B44",
">. c #363C52",
",. c #262C43",
"<. c #3F4145",
"1. c #434342",
"2. c #4C4B43",
"3. c #494A4C",
"4. c #464546",
"5. c #514E42",
"6. c #555244",
"7. c #5A5642",
"8. c #5A5849",
"9. c #4B4D54",
"0. c #575757",
"q. c #625C43",
"w. c #635F4A",
"e. c #6D6544",
"r. c #65614A",
"t. c #6A6549",
"y. c #736A43",
"u. c #746D4B",
"i. c #786F47",
"p. c #7C7145",
"a. c #7C744A",
"s. c #77714D",
"d. c #6D6953",
"f. c #646259",
"g. c #696758",
"h. c #746E54",
"j. c #777254",
"k. c #7C7554",
"l. c #7B755A",
"z. c #676766",
"x. c #7D7963",
"c. c #7A7868",
"v. c #75776E",
"b. c #83743C",
"n. c #86783F",
"m. c #8C7B3D",
"M. c #917F3E",
"N. c #817543",
"B. c #867944",
"V. c #8B7D42",
"C. c #837A4A",
"Z. c #8A7E4B",
"A. c #807649",
"S. c #917F42",
"D. c #837B54",
"F. c #867E5B",
"G. c #827B62",
"H. c #95833E",
"J. c #8E8045",
"K. c #8C804D",
"L. c #958343",
"P. c #998644",
"I. c #9C8A45",
"U. c #95864A",
"Y. c #96884B",
"T. c #9C8C4B",
"R. c #9F904F",
"E. c #8C8354",
"W. c #8C835C",
"Q. c #9B8E53",
"!. c #948B5B",
"~. c #968A55",
"^. c #9F9155",
"/. c #9F945E",
"(. c #A18D46",
"). c #A18E49",
"_. c #A4924C",
"`. c #AA954B",
"'. c #AD994C",
"]. c #A69247",
"[. c #B29C4D",
"{. c #A49552",
"}. c #A79854",
"|. c #AC9B53",
" X c #A2955A",
".X c #AA9A55",
"XX c #B19E54",
"oX c #B8A14E",
"OX c #B5A255",
"+X c #BAA453",
"@X c #BEA955",
"#X c #B4A45A",
"$X c #B9A75A",
"%X c #BDAB5C",
"&X c #8A8567",
"*X c #948D6A",
"=X c #948B65",
"-X c #9C9364",
";X c #9C946B",
":X c #938D78",
">X c #9A9476",
",X c #898972",
"<X c #A39A6C",
"1X c #A59B68",
"2X c #A59D77",
"3X c #ACA26E",
"4X c #BBAC62",
"5X c #BDAE69",
"6X c #B5A766",
"7X c #ADA478",
"8X c #B3AA77",
"9X c #BCB27A",
"0X c #C2AB55",
"qX c #C1AD5C",
"wX c #C4B15D",
"eX c #CBB55C",
"rX c #CCB458",
"tX c #D4BC5F",
"yX c #C0AF61",
"uX c #C5B362",
"iX c #C9B763",
"pX c #CCBA66",
"aX c #CEBD69",
"sX c #C3B36D",
"dX c #D2BD63",
"fX c #D0BF69",
"gX c #C3B97B",
"hX c #D5C26B",
"jX c #D9C66D",
"kX c #DCC86D",
"lX c #DAC364",
"zX c #DDCA71",
"xX c #DACA79",
"cX c #E2CC6C",
"vX c #E0C663",
"bX c #E2CE71",
"nX c #E9D574",
"mX c #EDD974",
"MX c #EDD97A",
"NX c #E5D275",
"BX c #F1DD7A",
"VX c #F0DB77",
"CX c #E8D26D",
"ZX c #F9E37E",
"AX c #999685",
"SX c #A39D85",
"DX c #B1A986",
"FX c #C4BB82",
"GX c #CCC288",
"HX c #D7CB87",
"JX c #DDD188",
"KX c #EADB8C",
"LX c #F7E383",
"PX c #FEF598",
"IX c #FCF1A6",
"UX c None",
/* pixels */
"UXUXUXUXUXUXUXUXUXUXUXUXUXUXUXUXUXUXUXUXUXUXUXUXUXUXUXUXUXUXUXUXUXUX%.%.&.&.%.%.%.%.%.%.%.%.UXUXUXUXUXUXUXUXUXUXUXUXUXUXUXUXUXUXUXUXUXUXUXUXUXUXUXUXUXUXUXUXUXUX",
"UXUXUXUXUXUXUXUXUXUXUXUXUXUXUXUXUXUXUXUXUXUXUXUXUXUXUXUXUXUX*.%.%.%.%.%.%.%.%.%.%.%.%.&.&.%.b.&.b.b.UXUXUXUXUXUXUXUXUXUXUXUXUXUXUXUXUXUXUXUXUXUXUXUXUXUXUXUXUXUX",
"UXUXUXUXUXUXUXUXUXUXUXUXUXUXUXUXUXUXUXUXUXUXUXUXUXUX*.*.%.%.*.*.*.*.*.*.b.b.b.b.b.b.b.b.b.%.%.b.%.%.*.*.%.*.UXUXUXUXUXUXUXUXUXUXUXUXUXUXUXUXUXUXUXUXUXUXUXUXUXUX",
"UXUXUXUXUXUXUXUXUXUXUXUXUXUXUXUXUXUXUXUXUXUXUXUX*.*.*.*.%.%.b.m.m.m.m.m.b.%.&.&.&.&.&.b.b.m.m.m.n.b.%.*.*.*.*.*.UXUXUXUXUXUXUXUXUXUXUXUXUXUXUXUXUXUXUXUXUXUXUXUX",
"UXUXUXUXUXUXUXUXUXUXUXUXUXUXUXUXUXUXUXUXUXUXn.*.*.*.*.b.m.L.b.o.~ Q L b 7 2 h h 1 1 3 6 m R '  .O.b.m.m.b.b.*.b.*.b.UXUXUXUXUXUXUXUXUXUXUXUXUXUXUXUXUXUXUXUXUXUX",
"UXUXUXUXUXUXUXUXUXUXUXUXUXUXUXUXUXUXUXUXn.*.*.*.b.m.U.m.o.L 5 -   # * # > V , y U ) G D i ; * * ; 6 / +.b.M.m.b.*.b.b.b.UXUXUXUXUXUXUXUXUXUXUXUXUXUXUXUXUXUXUXUX",
"UXUXUXUXUXUXUXUXUXUXUXUXUXUXUXUXUXUXUXb.b.*.*.L.U.%.~ 5 X # # > U < d.7.K FXz X G.F.F.F.D.h.g.w.{ V & * m [ %.m.m.b.b.b.b.b.UXUXUXUXUXUXUXUXUXUXUXUXUXUXUXUXUXUX",
"UXUXUXUXUXUXUXUXUXUXUXUXUXUXUXUXUXn.n.n.n.J.I.$.9 X   # . r.d.h GXD 7.c.:.SX9.l s < 1 h n I 6.t.W.<X-Xr.i & k ^ $.L.V.b.B.n.b.UXUXUXUXUXUXUXUXUXUXUXUXUXUXUXUXUX",
"UXUXUXUXUXUXUXUXUXUXUXUXUXUXUXUXn.n.n.V.I.V.W o . . $ 2X) P 7XC G.g.x.SX;XF.;X8X0., l l h s y ; t n h.<X<Xh.K & y [ B.L.m.n.n.m.UXUXUXUXUXUXUXUXUXUXUXUXUXUXUXUX",
"UXUXUXUXUXUXUXUXUXUXUXUXUXUXV.V.m.n.U.).! :     c 9Xh d.z.4.8X6X-X7X=Xh.q.P P ` F 5 j z z l z F n l ; r _ j.;X;XJ q z | L.L.B.n.m.B.UXUXUXUXUXUXUXUXUXUXUXUXUXUX",
"UXUXUXUXUXUXUXUXUXUXUXUXUXV.V.n.V._.J.9     _ *X- >X9.w.HXHX1Xh.U d ; $ $ - % , 5 s s h h h h z z V F F d ; z =X9Xk.t e ^ B.I.J.B.V.V.UXUXUXUXUXUXUXUXUXUXUXUXUX",
"UXUXUXUXUXUXUXUXUXUXUXUXS.V.V.J.{.&.O   ^ ^ b DXS k.JX9Xy.M ; . . + 1 1 4 1 y x l 5 h h h x x x z x z n V G V = U &X<X6.q F &.I.L.V.V.J.UXUXUXUXUXUXUXUXUXUXUXUX",
"UXUXUXUXUXUXUXUXUXUXUXJ.J.V.Y.[.~       y.IX& w.PXJXr.*   . : 1 1 1 1 1 1 4 1 x l 3 h h x x h x z z z z z F F G k w 8.3Xl.u u @.].U.J.J.J.UXUXUXUXUXUXUXUXUXUXUX",
"UXUXUXUXUXUXUXUXUXUXU.J.J.T.}.Q     r.9X= f.gXJXE.=   O < > > < > 1 1 1 1 4 s x l 5 h h l x l z x z z z z z z F G G t G -Xl.V u | I.I.J.L.L.UXUXUXUXUXUXUXUXUXUX",
"UXUXUXUXUXUXUXUXUXU.L.L.T.'.L   4 n c &Xg.NXgX;   o 2 2 > , > 1 1 1 1 1 4 s 1 x l s s h h l h x z x z z z V n V V F K l p h.1XF p { ).T.U.U.U.UXUXUXUXUXUXUXUXUX",
"UXUXUXUXUXUXUXUXUXU.U.T.OXQ     ) KX; ) KXD..   : - 2 , 2 2 < < 1 1 1 1 1 5 1 x h 5 h h h x x x z z z z l l n n V n F G F d u.!.H a | `.T.L.U.Y.UXUXUXUXUXUXUXUX",
"UXUXUXUXUXUXUXUXY.Y.I.#X~   : u.+ t 9XLXM   o : : 2 2 2 > , < > 1 1 1 1 1 y - = = # = = ; y h z x z z l m G z V n F n F H H i 6.!.J a @.'.T.Y.T.UXUXUXUXUXUXUXUX",
"UXUXUXUXUXUXUXT.T.Y.$X*.    . 9XU | xXs   O : - : - - , 2 < > < < 1 > # # 1 I y.A.A.A.e.X.I r r h z z d  ...k F V F F H H m G B r.~.S f p.[.Y.T.T.UXUXUXUXUXUXUX",
"UXUXUXUXUXUXR.R.T.XX_.O   X.( . 1XxX1   O : - + : 2 2 2 2 > < 1 1 # # X..X}.Q.Z.Z.C.N.N.N.C.S.y.y r z d [ ..d F n F F n F H G G A r.s.A H Y.|.T.T.R.UXUXUXUXUXUX",
"UXUXUXUXUXUX_.T.{.%X6     +.F.] kX1   O O - O : - 2 - , > , 1 - . b qXjXZ.P , * * * = = = k } ).Y.^ t 0 [ ..k n V n F F F F H G F B s.e.a ` '.}.R._.UXUXUXUXUXUX",
"UXUXUXUXUX{._.R.%X .  5 C.$ F hXc   - X - O - : : 2 : 2 2 > $ $ N.dXC.> # - y j x 5 h h l s ; t $.'.&.^ *.[ k V v H n H G G F G F F K k.5.f e.OX{.R.{.UXUXUXUXUX",
"UXUXUXUXUX{.{.#X|.    X /.q.uXq.  X O O O - O : : - , 2 < # # ).tXb . ; 4 5 1 h h s h h h x j k 0 / `.I.J.Q d F n n D n H F H G J G S ` u.S H R.OX{.{.UXUXUXUXUX",
"UXUXUXUX}.}.}.iXQ   m W   Z.Q.  o X - X O O - : : 2 2 2 % # ).dX2 # 1 4 4 4 y h j s h h h x l z x r } I.m.' k n V F F H H G F G J G K Z q.q.g q.+X}.{.}.UXUXUXUX",
"UXUXUXUX|.}.wXU.    N j.{ .X.   X o X O - - O : : - 2 : . %.vXc # 4 1 1 1 4 1 h h s h x h x h x z x i +.H.! k V n F n H n F H G G K G K K u.1.C K.%X|.|.UXUXUXUX",
"UXUXUX|.[..XpX9   c O . 5X .  X X X % O O - O : : : 2 . b tXO.. > 1 1 1 4 5 s h h 5 l h h j h x j z i F S. .d V V F F F H G G G G K K K S 7.e.g 6.$X|..X|.UXUXUX",
"UXUXUX#X#XyXR.    y.u...}.    X X X - X - O : : : : % - I.OX3 $ 1 < 1 1 1 4 1 h h s s h h l l z x z z d [ ' l F D n F n F F G H J G K F K J q.) S R.uX|.#XUXUXUX",
"UXUX#X#X#XhXO.  o   %  XM   o X X X X O O - O : : : . W rXb.$ 2 1 < 1 4 1 5 4 h h 5 h h h l x x x z z z k z n z n F n F F H F H K K K K K H 5.7.g s.eXXX#X#XUXUX",
"UXUX#X#X%XyX@   q.} N Z.    $ o X X % O - O - : : : . o.rX&.$ < > 1 1 1 s 1 s h l 5 h h h x h j l z z z z z n V V F D H F F G G K K K K G J ) e.J 1.#X%X#X#XUXUX",
"UXUX#X#XjXJ.    . 4 Q.!   o $ o X X % O - O O : : : $ &.rX&.$ < 1 1 1 1 1 s 1 h h 5 l s h l x l x z z z z V n F F n F F G F H G G J K K G J -.X.6.g E.dX$X$XUXUX",
"UXUX%X%XzXR   R ! 7 }.2   o o X X X O O O - - : : % - b.0X%.$ > 1 1 1 1 1 5 s 5 h s 5 l h x x x l z z z z n V n z V F F F G G H J K K K K G H 5.q.C w.iX%X4X4XUX",
"UX%X4XiXyXO   > [ Z.p.    . O X X X O X - O - : : % 2 m.[.S., - > 1 1 1 5 1 s 5 h 5 s h h x x l j z z z z V F z F F F F F H F H K K K K K K G ;.X.) K #XuXqXyXUX",
"UXyXyXkXT.  o 7   J.E   o X o o X X X - O - O : : X 2 V.'.[.c # 1 1 1 1 s 1 s h h h h h l x x l x z z z n z z F z F F F G F G G K K K K Y K J :.} 5.,.Q.lXyXyXUX",
"UXyXuXNX%.  + Y.( $.2   o # X o X X % O X + : - - + X b.`.0X%.# , 1 1 1 4 s 1 5 h 4 h h h x l j l z z z n V n V n F F F F F H G G K K U J ;.K J 4.5.C Z.kXuXuXUX",
"UXuXiXnX+.      N a.    o o o o X X O O + O : - : : # O.[._.0XP . > 1 1 4 5 s h h 4 h h h l l x x z z z z z V n z F F F F G F G H K K K U Y U J ` 6.C D.kXiXuXuX",
"pXpXpXnXQ   ' [ ' ..      o o $ X X O % X - + + : : .  .oX).+X$XP # # , 1 s s 5 h h h h h l x x z x z z V n V n F F z F F G H G G K K K ;.U K K 4.} Z w.fXdXsXuX",
"pXpXaXbX8   2 6 y.E   . o o o X X X % X - + : : : : # 9 `._.).%XeXB.N < # # # # * ; , y y 4 h x x z z z z z n V F F F F F H F G J G K ;.U ;.K H 1.7.:.6.fXfXpXaX",
"aXaXzXhX@   9 + +.L     o   X X X X O X - + - - : : X 1 I.+XXX+XwXcXkX%X^.C.A.y.q.' I m v z x l z z z z z F V n F F F F F H G H G G K J J ;.U H ;.} 1.1.uXkXaXaX",
"aXaXzXpX    N.' +.8   o o X o X X X X + X + + - : : . E ].(.].{.|.XX%XdXcXnXmXMXnXfX%X.XR.{.e.y l z z v z z n z z F F F F G F G H J K U U U U H ;.} ` J yXbXhXfX",
"hXhXNXuXo     # S.7     o . o o X X X X O + + : : : : 5 5 1 3 4 4 5 5 h h 6 x j v v m m m I m h x z z V V F z F F F F F F G G J K U U U ;.Y U k H 7.5.-.6XnXhXhX",
"zXjXMX5X      X U.8   X X X X X % + : - - : : : : , > : % - - - - - - , ; , , , , , < t 1 y 4 z l x x z v z z F V z z F F F F F F H F H J F U 0.4.] ] -.6XnXkXjX",
"zXzXMXyX  c d.  x : o + % O : - + - - : : : : 2 2 > < < 1 > y < 1 y 1 4 4 4 5 4 h h h h h h x x x l l j z z z l z F z F F F F F F F F H G z 2.DXz.z ;.J 5XBXzXzX",
"zXzXLXpX  6 a.            o   o o X X X O % - + - : : : 2 , > > 1 > # # # # # # # & * $ = w w w r t i i k z F F F F F F F F G G K U U ;.U H 5.Q.f.A H :.5XBXzXzX",
"zXzXMXaX  2 k.  o o   o o o o o X X X O X + + : : 2 : 2 > > < < - 6 B.Z.Z.Y.Q. X^.~.C.p.#.+.@.X...} [ [ [ n z F F F F F F G F J H K K K ;.H 2.F.:X>X0.V sXVXzXzX",
"zXzXNXjXO X u.  . o o   o $ o $ X X % O + + : - : : : , , > > < ; 5 #.p.A.C.E. X#XiXfXcXCXcXeXXX`.`.I.(.O.l l n z F F F F H F G K K K K K D 5.=Xz.x.0.J aXCXjXzX",
"jXjXzXMX7   e.o   X   o   o . X X X O % % + - - : 2 : 2 , > < < 1 > # # # # # # & , h m ' y.Q.+X).Z.V.S.' i D D z D F F F F J G G K K K K D 7.;Xz.4.Z 6.jXbXjXjX",
"jXjXjXZXW   q.@     o . o o X X X X O - + % : : : : > , > 2 1 > 1 < 1 1 1 4 4 5 4 4 y r = ; h [ ).).B.S.O.l z n F F F F F G H H K G K K U Z l.:XAXDX-.8.CXzXhXjX",
"UXhXhXLX&.  7.b   o   o o X o X X X X X X + O : : : , > , > > < < 1 1 1 4 1 5 1 4 h h h h x y 0 m I.S.m.b.m l F z F F F F U F U H K K K K :.>XG.>.9.C D.mXhXhXhX",
"UXhXhXZXN.  / (   O .   o . X X X X + X - + - + : : : : , > 1 < 1 1 1 1 4 4 h s 5 h h h h l x x w ( I.b.m.I k z F F F F F F F H K K K K D 3.*X>XSX6.u !.mXfXhXUX",
"UXfXfXBXR.  8 e.  o o   o o o o X X X X - + : + - : : 2 , > < > > 1 1 s 3 s y 3 5 s h h h h l j x i $.S.m.' k n n D n F H H F G G J J ;.k f.F.9.l.0.B  XnXfXfXUX",
"UXfXaXzXuX  o W.    O . o $ . X X X + X + - : - : : , > > , > < > 1 1 1 3 s 5 s 5 h h h h h l l z t ..I.m.! k V D n F H F G H G J G U U Z k.2XG.3.:.J qXcXfXfXUX",
"UXaXpXpXVXL   D./   X   o . O o X X O % X + - : : : : 2 > > > 1 < 1 1 1 s 3 s 3 y h h h h j x x z y ' L.m.' B V n n D n F H F G G J G F 9./.G.:XSXZ 6.kXfXiXfXUX",
"UXUXpXiXMXS.  ( F.  o X o o X o X X O O + % + - : : , > , > < < < 1 1 1 1 s 5 s 5 s h h h l l x l i I S.m.( k n V F F H F G H G J G K l 8.8Xz.<.3.B F.CXiXdXUXUX",
"UXUXpXiXhXdXo   W.@   X   o o o X X % % + % : : : : : 2 > > < > 1 1 1 1 3 s 3 3 4 s h h h l x x j i / L.b.P B v z F F F F G F G G G K -.D.G.AXDXS J yXfXiXpXUXUX",
"UXUXuXuXuXVXo.  q.]   X o $ o X X X O O % + + - : : : $ ; < > < > 1 1 y s 3 s s 5 k h h h x x l l y E I.&.z V n F F F F F G G H H K l 9.DXf.:.f.C u.cXuXuXiXUXUX",
"UXUXUXuXuXcX}.  : D.    X . $ o X X % X O + + - : : > 6 : : 1 > > 1 1 1 3 s y 3 5 h h h h l x l z i ' `.[ k z V n F V F F H F H H G -.F.-XSX&XZ A .XvXuXuXUXUXUX",
"UXUXUXuXwXuXjX7   W.q.  X o o o X X O - X + + : : + ; (.Q # 1 2 1 1 1 1 s y 5 3 s h h h h x x x x y $.I.m B n n z F F G F F G G U k f.sX0.3.&X-.` iXiXyXuXUXUXUX",
"UXUXUXUXyX%XbXU.  5 <X+   X o X X X X % + - + - : % - S.`.: $ 1 > 1 1 3 y 4 5 4 1 h h h j x x z w I `.} i n z D F F F F F G F G F Z !.2XAXw.Z B E.vXqXwXwXUXUXUX",
"UXUXUXUXqXqXwXcXL   e.e.  X X X X X + X X + + : : % : b.rX&.. : 1 1 1 4 1 4 5 s 1 h h h h x x t n [.$.t l z n F n V F F F F H F B c.3X>.c.:Xa 7.dXuX%XyXUXUXUXUX",
"UXUXUXUXUX%X%XhX#X    =X5   X X X X X + + - + : : + + b.[.+XE # , 1 1 1 y 3 s 3 1 h h j x s * x oXS.y h z D F z V F F F F F K d 0.5X2X,X3.C V }.dX$X%X%XUXUXUXUX",
"UXUXUXUXUX%X$X%XvXQ   P 3XX   X X X X O % + - - : % - b.[.rXlXo.. % 1 1 3 s 5 y s h h h w w X.|.y.i d n z z z F n F F F F G h ;.5XG.9.8Xc.0 w.dX%X%X%XUXUXUXUXUX",
"UXUXUXUXUXUX%X$XuXdX@   k.F.  o X X O % % + + : : + - S.).P #.eXT.5 # # $ - , - # = # r ( ^.0X} = h z z z F z z z F F F G h ,.1X2XAXd.-.A H $XeX$X$XUXUXUXUXUXUX",
"UXUXUXUXUXUX$X#XOXdX_.    W.}   X X O X + % - + : % > P.L   . 5 Y.{.B.#.[ I I I } i.A.Z.^.A.h w l z z z z z F F F F F G k A 3XGX>.t.2XS l Q.tXOXOX$XUXUXUXUXUXUX",
"UXUXUXUXUXUXUXOXOXXXcX#.  O gX{   X O % + % + : - X 7 B.> - 1 $ # 6 y.R. XXX#X6X#X^.A.' < = s x x z z z z F z F z F F s g 7X6XG.7X3.B u u.tXOXOX$XUXUXUXUXUXUXUX",
"UXUXUXUXUXUXUXUXOXOX+XdXW   5 8Xb   X X + + : : : % 3 Q 1 : 1 2 1 ; # # , 5 v 1 , = * r h x l x z z z z z z F z F F r F 9XJX9.-.8Xf.w 7.0X%X#XOXOXUXUXUXUXUXUXUX",
"UXUXUXUXUXUXUXUXOXXX|.%XlXL   > gX]   o O : : : : : : % 2 < 2 < : 1 1 1 1 1 < , 1 h h h h l h j l x z z z z F F z w 3.HX/.9.JX&Xu u 6.eX@X|.OXOXUXUXUXUXUXUXUXUX",
"UXUXUXUXUXUXUXUXUXXXXX|.qXqX7   6 FX|   . X O : : : , : < 2 > < 1 1 1 1 1 s s 1 1 h h h h x j l z x z z V n z , 0 x.MX8Xv.Y x.g.e J OX0X|.|.|.UXUXUXUXUXUXUXUXUX",
"UXUXUXUXUXUXUXUXUXUXXX|.`.qX%XL   : ;X!.o   O % : 2 : 2 < 2 < < 1 1 1 1 1 s 5 1 1 x h h h l h l z z z z v y 0 8.gXJX&X,.FX>X* p { XX@X}.|.|.UXUXUXUXUXUXUXUXUXUX",
"UXUXUXUXUXUXUXUXUXUXUX[.|.`.qXeXL     -X8X5   o O - 2 < < 2 1 > 1 1 1 1 1 5 h 1 1 h h h h x x l x z x r q S 3XPX2X=.GXD.C <.p 5.@X$X'.'.[.UXUXUXUXUXUXUXUXUXUXUX",
"UXUXUXUXUXUXUXUXUXUXUXUX`.}._.+X0Xo.    | <Xs.X   % : : : < 1 > 1 1 1 1 1 4 s 1 1 h h h h h x h 1 = d { /.HX3Xg.,X1.l.x.q i y.XXoX{.'.|.UXUXUXUXUXUXUXUXUXUXUXUX",
"UXUXUXUXUXUXUXUXUXUXUXUXUX`.}._.|.tXJ.2   o W.8X|     X : + : < 1 1 1 4 5 4 h 1 , y y t r , ; i ) a.9XxX-Xh.g.p 8XF.& 0 H S.0X[.{.`.{.UXUXUXUXUXUXUXUXUXUXUXUXUX",
"UXUXUXUXUXUXUXUXUXUXUXUXUXUX`.{._.).qX[.R     ^ 1Xj.{ 3   . : + , > : 1 1 s s 1 5 z m I ' q.D.~.6X6Xk.g.3.h FX6.p f k { _.+X}._._.`.UXUXUXUXUXUXUXUXUXUXUXUXUXUX",
"UXUXUXUXUXUXUXUXUXUXUXUXUXUXUX_._.].).XX0XL.9     m u.W.u.M - # X , : : : : X h Z.).V.U.Z.s.C.d.d l.^ G 8XV l V r I S.oX[.].)._._.UXUXUXUXUXUXUXUXUXUXUXUXUXUXUX",
"UXUXUXUXUXUXUXUXUXUXUXUXUXUXUXUX_._.).).).+X+XO.3     1 e.a.u.] I c h y , ; % , m M { z ` / r E.k u.D.t V i r n #.[.[._.).)._._.UXUXUXUXUXUXUXUXUXUXUXUXUXUXUXUX",
"UXUXUXUXUXUXUXUXUXUXUXUXUXUXUXUXUXUX).).).I.].@X`.*.R X   # N / / ] } ..[ ' ' ( y = A.P / i.y _ n d u r h ' p.].[.`.).).).).UXUXUXUXUXUXUXUXUXUXUXUXUXUXUXUXUXUX",
"UXUXUXUXUXUXUXUXUXUXUXUXUXUXUXUXUXUXUXUX).I.I.I._.[.+XL. .8 # . . # ; 6 b P P P h y v l r r r * t s M ..V.[.[.).I.I.I.).UXUXUXUXUXUXUXUXUXUXUXUXUXUXUXUXUXUXUXUX",
"UXUXUXUXUXUXUXUXUXUXUXUXUXUXUXUXUXUXUXUXUXUXI.I.I.I.I.`.oX`.b.O. .R 8 5 , = * * , < , 4 z m Q ..+.n.].[.`.I.I.I.I.I.I.UXUXUXUXUXUXUXUXUXUXUXUXUXUXUXUXUXUXUXUXUX",
"UXUXUXUXUXUXUXUXUXUXUXUXUXUXUXUXUXUXUXUXUXUXUXI.I.I.P.P.P.I.`.[.[.[.(.M.b.b.&.b.$.%.b.b.L.(.`.'.'.].I.P.P.I.I.I.I.UXUXUXUXUXUXUXUXUXUXUXUXUXUXUXUXUXUXUXUXUXUXUX",
"UXUXUXUXUXUXUXUXUXUXUXUXUXUXUXUXUXUXUXUXUXUXUXUXUXUXI.P.P.P.P.P.P.P.P.(.].].].[.`.`._.].(.I.P.P.L.I.P.P.P.P.UXUXUXUXUXUXUXUXUXUXUXUXUXUXUXUXUXUXUXUXUXUXUXUXUXUX",
"UXUXUXUXUXUXUXUXUXUXUXUXUXUXUXUXUXUXUXUXUXUXUXUXUXUXUXUXUXP.P.L.P.P.P.H.S.P.P.M.P.P.S.P.L.L.L.P.H.P.P.UXUXUXUXUXUXUXUXUXUXUXUXUXUXUXUXUXUXUXUXUXUXUXUXUXUXUXUXUX",
"UXUXUXUXUXUXUXUXUXUXUXUXUXUXUXUXUXUXUXUXUXUXUXUXUXUXUXUXUXUXUXUXUXP.S.P.S.P.P.S.M.M.P.S.L.L.L.UXUXUXUXUXUXUXUXUXUXUXUXUXUXUXUXUXUXUXUXUXUXUXUXUXUXUXUXUXUXUXUXUX"
};
