/* XPM */
static char *_27297374321425ada8292b2f5980ac8[] = {
/* columns rows colors chars-per-pixel */
"32 32 186 2 ",
"   c #010103",
".  c #090807",
"X  c #02030B",
"o  c #07080E",
"O  c #0C0C0C",
"+  c #12110D",
"@  c #000311",
"#  c #060812",
"$  c #0B0D13",
"%  c #0C0F18",
"&  c #0F1013",
"*  c #0E1019",
"=  c #131313",
"-  c #1A1917",
";  c #13141B",
":  c #1C1C1C",
">  c #201F1C",
",  c #242116",
"<  c #2B2716",
"1  c #23211C",
"2  c #28251C",
"3  c #2C291E",
"4  c #332F1C",
"5  c #0F1220",
"6  c #141622",
"7  c #171820",
"8  c #1B1C23",
"9  c #1D1F29",
"0  c #1F2124",
"q  c #1E2028",
"w  c #232424",
"e  c #2B2A24",
"r  c #23252C",
"t  c #282728",
"y  c #27292D",
"u  c #2C2C2B",
"i  c #302F27",
"p  c #302F2C",
"a  c #333021",
"s  c #3A3522",
"d  c #33332D",
"f  c #38362D",
"g  c #3C392C",
"h  c #2C2D32",
"j  c #2F3131",
"k  c #343434",
"l  c #383731",
"z  c #3C3B35",
"x  c #363639",
"c  c #3A3A3A",
"v  c #433C25",
"b  c #413E2E",
"n  c #413E32",
"m  c #403F39",
"M  c #4C4325",
"N  c #46412D",
"B  c #4B442B",
"V  c #4E482F",
"C  c #554B27",
"Z  c #524B2E",
"A  c #5E542E",
"S  c #464231",
"D  c #4A4532",
"F  c #4D4833",
"G  c #43423C",
"H  c #49473D",
"J  c #4B483D",
"K  c #534D33",
"L  c #514C39",
"P  c #5B5333",
"I  c #575238",
"U  c #5C563A",
"Y  c #5E583B",
"T  c #6A5E2F",
"R  c #615735",
"E  c #635A34",
"W  c #695E34",
"Q  c #645B39",
"!  c #6E6335",
"~  c #6C633C",
"^  c #786A36",
"/  c #706639",
"(  c #756B3A",
")  c #7D6E3B",
"_  c #7F713A",
"`  c #353A43",
"'  c #3B3E40",
"]  c #3B3E4C",
"[  c #444443",
"{  c #484640",
"}  c #4E4D45",
"|  c #404148",
" . c #4C4D4A",
".. c #504E40",
"X. c #565346",
"o. c #595543",
"O. c #54534A",
"+. c #5E5B4B",
"@. c #4B4C54",
"#. c #575759",
"$. c #5F605D",
"%. c #6C6444",
"&. c #666148",
"*. c #6A654D",
"=. c #716943",
"-. c #796E40",
";. c #7C7244",
":. c #7B724C",
">. c #6F6B57",
",. c #60615E",
"<. c #6F6E59",
"1. c #716B56",
"2. c #767254",
"3. c #797353",
"4. c #7E795C",
"5. c #767369",
"6. c #83743B",
"7. c #8B7A3D",
"8. c #857A44",
"9. c #8A7C42",
"0. c #837A4D",
"q. c #907F42",
"w. c #817C57",
"e. c #80795F",
"r. c #817C64",
"t. c #837F6C",
"y. c #93823F",
"u. c #938344",
"i. c #988744",
"p. c #9C8A45",
"a. c #9C8D4C",
"s. c #8D8457",
"d. c #908658",
"f. c #92895A",
"g. c #9C9057",
"h. c #9C915A",
"j. c #A28E45",
"k. c #A08F4C",
"l. c #AB9547",
"z. c #A4924A",
"x. c #AB9549",
"c. c #AC994D",
"v. c #B29C4D",
"b. c #A79650",
"n. c #A89751",
"m. c #A79853",
"M. c #AD9C54",
"N. c #AD9F5D",
"B. c #B6A04E",
"V. c #B5A456",
"C. c #BBA654",
"Z. c #BFA954",
"A. c #B5A45A",
"S. c #878265",
"D. c #86816D",
"F. c #88866A",
"G. c #928B6C",
"H. c #999265",
"J. c #9C966C",
"K. c #A39C73",
"L. c #A8A076",
"P. c #AEA87A",
"I. c #C3AC56",
"U. c #C2AE5B",
"Y. c #C5B05A",
"T. c #CAB55E",
"R. c #C5B260",
"E. c #CBB661",
"W. c #CEBA63",
"Q. c #D1BD66",
"!. c #D1BF69",
"~. c #D6C164",
"^. c #DBC262",
"/. c #D4C169",
"(. c #DDC96B",
"). c #E2CD6C",
"_. c #E6D26F",
"`. c #E5D174",
"'. c #EED974",
"]. c #F1DC75",
"[. c #F1DD7A",
"{. c #F7E27A",
"}. c #FAE47A",
"|. c #FCE780",
" X c #FFED84",
".X c None",
/* pixels */
".X.X.X.X.X.X.X.X.X.X.X.X6.7.7.7.7.6.7.6..X.X.X.X.X.X.X.X.X.X.X.X",
".X.X.X.X.X.X.X.X.X6.u.7.T C M B P P A T 6.7.6..X.X.X.X.X.X.X.X.X",
".X.X.X.X.X.X.X.Xp.6.M a t j [ k p z z J U P ^ y..X.X.X.X.X.X.X.X",
".X.X.X.X.X.Xu.p.C = y <.S.r.4.*.p t l G } } ..Q q.u..X.X.X.X.X.X",
".X.X.X.X.Xk.u.< $ <.J.3.z t : > w w w 0 w c X.} L 7.p..X.X.X.X.X",
".X.X.X.Xb.9.O u K.w.e   X = : : : 8 w y u r r [ O.H 8.z..X.X.X.X",
".X.X.Xn.z.O w H.I     : - & ; g S g u 8 u d j u x } H i.b..X.X.X",
".X.X.XV.< > f.s   & ; = o b %.I L F U F f S h j j x { o.c.k..X.X",
".X.XR.W   :.N   O = = # P ~ e ; ; ; r K 9.K r k x j m ' :.C..X.X",
".XA.M.O N R   . = = X Z ) @ ; w w t w 6 W U r k l x x G ..m.V..X",
".X/.T X %.+   O & $ - 6.3 $ > 8 w t t t u l j k k z c c c 0.T..X",
".X/.4 a Z   O & & X v u.& : : w w w t t y y d k x x c x x &.R..X",
"!.m.O V ,   O O + X v v.> X > w w w t t u j j k x c c c c { N.!.",
"`.9.O V +   O O + X > C.9.$ @ # * 7 w t u u j k k x c c c c h.(.",
"[.( + Z . . O O & $ O 7.^.M.:.%.I F f r p p j k k c c c x k f._.",
"|./ . N . . O O + & = e s D K K D b i 8 r u j j k x c c ' h d.].",
" X;.X + . . . + = = - o X ; e i f f d i u p j j k x x x 1.| s.}.",
" X8.. . . . O O + = ; = ; e K U =.0.a.z.6.d y k x c c x e.#.d.{.",
"}.u.= =   o O & & = = : : ; * & * 8 y -.j.z r k x x x m t.@.g.'.",
"`.M.2 =   . . O & = = - - : 8 0 w w 6 w 9.I r k d c h } t. .A.).",
".X(.K -   . . & + + & & : : : > w w t 8 / Q r k k x h >.5.+.Q..X",
".X'.( ; =   & O & & : = ; : : > w w t 8 / F r k x h c G.@.0.)..X",
".XQ.V.4 3   O O & X M W @ - > : 1 w 5 D ~ r j k k r >.t.| C.W..X",
".X.X).! > -   O & X s I.P $ % ; * 8 D ~ p r d k 9 X.K.] ;.^..X.X",
".X.XU.E.s u +   = X v W B P N S F U Q t 9 j j 8 H K.$.H Y.U..X.X",
".X.X.XE.c.2 d +   & 3 - X e S S D d 7 w j w 6 o.L.,.x c.Y..X.X.X",
".X.X.X.XT.p.3 d 1   O = : ; ; ; ; w w 8 6 l 4.P.,.h k.I..X.X.X.X",
".X.X.X.X.XY.p.s p d : X = - : > 8 0 i n *.J.F.` m z.I..X.X.X.X.X",
".X.X.X.X.X.XC.v.A g i e 1 > - : F %.%.2.2.' h W c.B..X.X.X.X.X.X",
".X.X.X.X.X.X.Xb.Z.7.E Z i w 8 ; w d u u b R q.v.x..X.X.X.X.X.X.X",
".X.X.X.X.X.X.X.X.Xx.v.p.) T R R P P W _ j.v.z..X.X.X.X.X.X.X.X.X",
".X.X.X.X.X.X.X.X.X.X.X.Xx.x.l.l.l.l.l.z..X.X.X.X.X.X.X.X.X.X.X.X"
};
